<svg preserveAspectRatio="none" overflow="visible" style="display: block;" width="78.8308" height="78.4711" viewBox="0 0 78.8308 78.4711" fill="none" xmlns="http://www.w3.org/2000/svg">
<g id="Group">
<path id="Vector" d="M37.652 41.0029C37.1372 40.5649 36.8759 40.0193 36.8759 39.3585C36.8759 38.6976 37.1372 38.1213 37.652 37.6756C38.1669 37.2299 38.8585 37.0071 39.7115 37.0071C40.5644 37.0071 41.233 37.2299 41.7478 37.6756C42.2627 38.1213 42.5239 38.6823 42.5239 39.3585C42.5239 40.0347 42.2627 40.5726 41.7478 41.0029C41.233 41.4409 40.5491 41.6561 39.7115 41.6561C38.8739 41.6561 38.1669 41.4409 37.652 41.0029Z" fill="#D2AA8B"/>
<g id="Group_2">
<path id="Vector_2" d="M4.04051 46.1591C8.8125 50.716 15.4287 51.2001 20.6234 47.842C22.0527 46.9199 24.9189 45.0603 26.402 44.2304C35.1238 39.3201 44.4679 45.4906 46.5658 58.8691C47.8798 67.4448 46.5504 75.3136 40.6181 76.4893C30.8282 78.372 28.0004 59.0842 29.4834 52.2682L24.2581 47.2887C16.7274 54.4736 18.1644 65.1856 25.672 72.3474C33.7636 80.0702 44.8445 80.4544 51.9371 73.6922C59.0298 66.93 58.6225 56.3563 50.5232 48.6335C43.469 41.902 32.2805 39.3124 25.3723 43.7001C23.8508 44.6684 21.2919 46.236 19.8703 47.1351C13.5153 51.154 8.25154 48.1724 7.31405 38.6515C6.73772 32.5424 8.03638 26.8406 12.3473 25.7648C16.8657 24.6583 18.9943 29.7991 19.6013 34.963L24.6346 30.1603C24.1351 29.4533 23.5588 28.7848 22.9056 28.1624C17.4267 22.937 9.48872 23.0907 4.10967 28.2315C-1.27707 33.3647 -1.43844 40.9415 4.04051 46.1668V46.1591Z" fill="#D2AA8B"/>
<path id="Vector_3" d="M74.7903 32.3119C70.0183 27.7551 63.4021 27.271 58.2074 30.629C56.7782 31.5512 53.9119 33.4108 52.4288 34.2407C43.7071 39.151 34.3629 32.9805 32.265 19.602C30.951 11.0262 32.2804 3.15745 38.2127 1.98175C48.0026 0.0990787 50.8305 19.3868 49.3474 26.2029L54.5727 31.1823C62.1034 23.9974 60.6664 13.2854 53.1588 6.12362C45.0672 -1.59917 33.9863 -1.98338 26.8937 4.77885C19.801 11.5411 20.2083 22.1148 28.3076 29.8376C35.3618 36.5691 46.5503 39.1587 53.4585 34.7709C54.98 33.8027 57.5389 32.2351 58.9605 31.336C65.3155 27.3171 70.5793 30.2986 71.5168 39.8195C72.0931 45.9286 70.7944 51.6304 66.4835 52.7062C61.9651 53.8128 59.8365 48.6719 59.2295 43.508L54.1962 48.3108C54.6957 49.0177 55.272 49.6863 55.9252 50.3087C61.4041 55.5341 69.3421 55.3804 74.7211 50.2395C80.1079 45.1064 80.2693 37.5296 74.7903 32.3042V32.3119Z" fill="#D2AA8B"/>
</g>
</g>
</svg>
